<mxfile host="app.diagrams.net" modified="2023-11-23T06:02:35.423Z" agent="Mozilla/5.0 (Macintosh; Intel Mac OS X 10_15_7) AppleWebKit/537.36 (KHTML, like Gecko) Chrome/119.0.0.0 Safari/537.36" etag="rdC0Vsz6KpTC7BPxWlyO" version="22.1.3" type="device">
  <diagram name="Page-1" id="aTJOgbajcn5ojxnITq-O">
    <mxGraphModel dx="1546" dy="978" grid="1" gridSize="10" guides="1" tooltips="1" connect="1" arrows="1" fold="1" page="1" pageScale="1" pageWidth="827" pageHeight="1169" math="0" shadow="0">
      <root>
        <mxCell id="0" />
        <mxCell id="1" parent="0" />
        <mxCell id="MPIN2Y4Io5xjmn0dfx1m-1" value="Command" style="rounded=0;whiteSpace=wrap;html=1;" vertex="1" parent="1">
          <mxGeometry x="140" y="40" width="120" height="60" as="geometry" />
        </mxCell>
        <mxCell id="MPIN2Y4Io5xjmn0dfx1m-7" value="" style="edgeStyle=orthogonalEdgeStyle;rounded=0;orthogonalLoop=1;jettySize=auto;html=1;exitX=0.5;exitY=1;exitDx=0;exitDy=0;" edge="1" parent="1" source="MPIN2Y4Io5xjmn0dfx1m-1">
          <mxGeometry relative="1" as="geometry">
            <mxPoint x="200" y="100" as="sourcePoint" />
            <mxPoint x="200" y="180" as="targetPoint" />
          </mxGeometry>
        </mxCell>
        <mxCell id="MPIN2Y4Io5xjmn0dfx1m-13" value="" style="edgeStyle=orthogonalEdgeStyle;rounded=0;orthogonalLoop=1;jettySize=auto;html=1;" edge="1" parent="1" source="MPIN2Y4Io5xjmn0dfx1m-10" target="MPIN2Y4Io5xjmn0dfx1m-12">
          <mxGeometry relative="1" as="geometry" />
        </mxCell>
        <mxCell id="MPIN2Y4Io5xjmn0dfx1m-10" value="Load aggregate events" style="whiteSpace=wrap;html=1;rounded=0;" vertex="1" parent="1">
          <mxGeometry x="140" y="180" width="120" height="60" as="geometry" />
        </mxCell>
        <mxCell id="MPIN2Y4Io5xjmn0dfx1m-15" value="" style="edgeStyle=orthogonalEdgeStyle;rounded=0;orthogonalLoop=1;jettySize=auto;html=1;" edge="1" parent="1" source="MPIN2Y4Io5xjmn0dfx1m-12" target="MPIN2Y4Io5xjmn0dfx1m-14">
          <mxGeometry relative="1" as="geometry" />
        </mxCell>
        <mxCell id="MPIN2Y4Io5xjmn0dfx1m-12" value="Apply loaded events on fresh aggregate" style="whiteSpace=wrap;html=1;rounded=0;" vertex="1" parent="1">
          <mxGeometry x="140" y="320" width="120" height="60" as="geometry" />
        </mxCell>
        <mxCell id="MPIN2Y4Io5xjmn0dfx1m-17" value="" style="edgeStyle=orthogonalEdgeStyle;rounded=0;orthogonalLoop=1;jettySize=auto;html=1;" edge="1" parent="1" source="MPIN2Y4Io5xjmn0dfx1m-14" target="MPIN2Y4Io5xjmn0dfx1m-16">
          <mxGeometry relative="1" as="geometry" />
        </mxCell>
        <mxCell id="MPIN2Y4Io5xjmn0dfx1m-20" value="" style="edgeStyle=orthogonalEdgeStyle;rounded=0;orthogonalLoop=1;jettySize=auto;html=1;" edge="1" parent="1" source="MPIN2Y4Io5xjmn0dfx1m-14" target="MPIN2Y4Io5xjmn0dfx1m-19">
          <mxGeometry relative="1" as="geometry" />
        </mxCell>
        <mxCell id="MPIN2Y4Io5xjmn0dfx1m-14" value="Apply command to aggregate" style="whiteSpace=wrap;html=1;rounded=0;" vertex="1" parent="1">
          <mxGeometry x="140" y="460" width="120" height="60" as="geometry" />
        </mxCell>
        <mxCell id="MPIN2Y4Io5xjmn0dfx1m-16" value="Reject command" style="whiteSpace=wrap;html=1;rounded=0;" vertex="1" parent="1">
          <mxGeometry x="40" y="600" width="120" height="60" as="geometry" />
        </mxCell>
        <mxCell id="MPIN2Y4Io5xjmn0dfx1m-22" value="" style="edgeStyle=orthogonalEdgeStyle;rounded=0;orthogonalLoop=1;jettySize=auto;html=1;" edge="1" parent="1" source="MPIN2Y4Io5xjmn0dfx1m-19" target="MPIN2Y4Io5xjmn0dfx1m-21">
          <mxGeometry relative="1" as="geometry" />
        </mxCell>
        <mxCell id="MPIN2Y4Io5xjmn0dfx1m-19" value="Apply command to aggregate and return new events" style="whiteSpace=wrap;html=1;rounded=0;" vertex="1" parent="1">
          <mxGeometry x="240" y="600" width="120" height="60" as="geometry" />
        </mxCell>
        <mxCell id="MPIN2Y4Io5xjmn0dfx1m-24" value="" style="edgeStyle=orthogonalEdgeStyle;rounded=0;orthogonalLoop=1;jettySize=auto;html=1;" edge="1" parent="1" source="MPIN2Y4Io5xjmn0dfx1m-21" target="MPIN2Y4Io5xjmn0dfx1m-23">
          <mxGeometry relative="1" as="geometry" />
        </mxCell>
        <mxCell id="MPIN2Y4Io5xjmn0dfx1m-21" value="Apply new events to aggregate" style="whiteSpace=wrap;html=1;rounded=0;" vertex="1" parent="1">
          <mxGeometry x="240" y="740" width="120" height="60" as="geometry" />
        </mxCell>
        <mxCell id="MPIN2Y4Io5xjmn0dfx1m-27" value="" style="edgeStyle=orthogonalEdgeStyle;rounded=0;orthogonalLoop=1;jettySize=auto;html=1;" edge="1" parent="1" source="MPIN2Y4Io5xjmn0dfx1m-23" target="MPIN2Y4Io5xjmn0dfx1m-26">
          <mxGeometry relative="1" as="geometry" />
        </mxCell>
        <mxCell id="MPIN2Y4Io5xjmn0dfx1m-23" value="Persist and publish new events" style="whiteSpace=wrap;html=1;rounded=0;" vertex="1" parent="1">
          <mxGeometry x="240" y="880" width="120" height="60" as="geometry" />
        </mxCell>
        <mxCell id="MPIN2Y4Io5xjmn0dfx1m-26" value="Return aggregate with command applied" style="whiteSpace=wrap;html=1;rounded=0;" vertex="1" parent="1">
          <mxGeometry x="240" y="1020" width="120" height="60" as="geometry" />
        </mxCell>
      </root>
    </mxGraphModel>
  </diagram>
</mxfile>
